<?xml version="1.0" standalone="no"?>
<!DOCTYPE svg PUBLIC "-//W3C//DTD SVG 20010904//EN"
 "http://www.w3.org/TR/2001/REC-SVG-20010904/DTD/svg10.dtd">
<svg version="1.0" xmlns="http://www.w3.org/2000/svg"
 width="270.000000pt" height="270.000000pt" viewBox="0 0 270.000000 270.000000"
 preserveAspectRatio="xMidYMid meet">
<metadata>
Created by potrace 1.14, written by Peter Selinger 2001-2017
</metadata>
<g transform="translate(0.000000,270.000000) scale(0.100000,-0.100000)"
fill="#000000" stroke="none">
<path d="M563 1710 c-29 -12 -30 -47 -3 -101 11 -21 35 -83 53 -137 38 -114
85 -190 139 -225 84 -54 265 -60 364 -11 87 41 137 108 202 267 17 41 40 34
63 -20 57 -138 109 -205 190 -246 68 -34 168 -44 267 -27 126 21 186 86 247
269 18 54 40 113 49 129 9 17 16 45 16 62 0 43 -26 50 -193 50 -197 -1 -321
-14 -451 -51 -137 -38 -192 -36 -361 10 -115 31 -130 33 -340 37 -132 3 -229
0 -242 -6z m508 -76 c46 -8 98 -24 114 -35 l30 -20 -215 4 c-156 2 -223 6
-245 16 -16 8 -33 14 -37 13 -5 -1 -8 2 -8 8 0 31 226 40 361 14z m864 4 l40
-11 -35 -9 c-19 -5 -119 -13 -222 -18 -103 -4 -197 -11 -210 -15 -22 -7 -22
-6 -6 10 40 42 335 72 433 43z"/>
<path d="M432 1310 c-4 -185 71 -385 206 -553 45 -56 92 -98 217 -195 16 -12
138 -69 165 -77 14 -4 30 -12 37 -17 18 -15 221 -48 293 -48 81 0 265 33 305
54 17 9 45 19 63 22 17 3 32 10 32 14 0 4 20 15 45 24 25 10 45 21 45 25 0 4
11 13 24 19 35 16 61 38 141 118 82 82 102 107 117 140 6 13 15 24 19 24 4 0
15 20 25 45 9 25 20 45 24 45 4 0 10 13 13 30 4 16 15 49 26 72 21 47 42 165
40 225 -1 25 -3 29 -5 13 -22 -143 -41 -205 -97 -315 -135 -267 -328 -425
-607 -496 -122 -32 -291 -31 -420 0 -208 51 -420 194 -517 347 -113 178 -167
316 -182 459 -8 73 -8 75 -9 25z"/>
<path d="M900 1071 c0 -23 58 -100 101 -133 94 -71 213 -108 346 -108 135 0
251 38 347 113 70 56 122 147 83 147 -8 0 -22 -9 -32 -20 -29 -32 -177 -99
-256 -116 -181 -39 -393 5 -530 109 -43 32 -59 34 -59 8z"/>
</g>
</svg>
